<mxfile host="Electron" modified="2023-11-28T09:49:30.038Z" agent="Mozilla/5.0 (Windows NT 10.0; Win64; x64) AppleWebKit/537.36 (KHTML, like Gecko) draw.io/21.6.8 Chrome/114.0.5735.289 Electron/25.5.0 Safari/537.36" etag="3-YDdmboPspZZ2d_ajDs" version="21.6.8" type="device">
  <diagram id="C5RBs43oDa-KdzZeNtuy" name="Page-1">
    <mxGraphModel dx="1541" dy="1592" grid="1" gridSize="10" guides="1" tooltips="1" connect="1" arrows="1" fold="1" page="1" pageScale="1" pageWidth="827" pageHeight="1169" math="0" shadow="0">
      <root>
        <mxCell id="WIyWlLk6GJQsqaUBKTNV-0" />
        <mxCell id="WIyWlLk6GJQsqaUBKTNV-1" parent="WIyWlLk6GJQsqaUBKTNV-0" />
        <mxCell id="Gzazn2zRRz58NmP6-7yE-3" value="" style="rounded=1;whiteSpace=wrap;html=1;fontSize=12;glass=0;strokeWidth=1;shadow=0;fillColor=#dfdfdf;strokeColor=#82b366;" parent="WIyWlLk6GJQsqaUBKTNV-1" vertex="1">
          <mxGeometry x="-177" y="-1030" width="130" height="120" as="geometry" />
        </mxCell>
        <mxCell id="PtvGfc8u3fFPzmpzfyYF-18" value="PlanDefinition&lt;br&gt;&lt;i&gt;Analytical Procedures&lt;/i&gt;" style="rounded=1;whiteSpace=wrap;html=1;fontSize=12;glass=0;strokeWidth=1;shadow=0;fillColor=#cfcfcf;strokeColor=#82b366;" parent="WIyWlLk6GJQsqaUBKTNV-1" vertex="1">
          <mxGeometry x="-187" y="-1070" width="154" height="40" as="geometry" />
        </mxCell>
        <mxCell id="PtvGfc8u3fFPzmpzfyYF-35" value="req." style="endArrow=classic;html=1;rounded=0;exitX=1;exitY=0.5;exitDx=0;exitDy=0;" parent="WIyWlLk6GJQsqaUBKTNV-1" source="Kh6UWCqLEouyqFOK7ntM-1" edge="1">
          <mxGeometry width="50" height="50" relative="1" as="geometry">
            <mxPoint x="383" y="-785" as="sourcePoint" />
            <mxPoint x="12" y="-970" as="targetPoint" />
          </mxGeometry>
        </mxCell>
        <mxCell id="fafH0U7rZojqmzMNoOSG-42" value="ObservationDefinition&lt;br&gt;&lt;i&gt;Particle Size RSD&lt;/i&gt;" style="rounded=1;whiteSpace=wrap;html=1;fontSize=12;glass=0;strokeWidth=1;shadow=0;fillColor=#A6C499;strokeColor=#82b366;" parent="WIyWlLk6GJQsqaUBKTNV-1" vertex="1">
          <mxGeometry x="13" y="-947.5" width="140" height="42.5" as="geometry" />
        </mxCell>
        <mxCell id="Kh6UWCqLEouyqFOK7ntM-0" value="Action&lt;br&gt;&lt;i&gt;Sample Preparation&lt;/i&gt;" style="rounded=1;whiteSpace=wrap;html=1;fontSize=12;glass=0;strokeWidth=1;shadow=0;fillColor=#dfdfdf;strokeColor=#82b366;" parent="WIyWlLk6GJQsqaUBKTNV-1" vertex="1">
          <mxGeometry x="-163" y="-1020" width="103" height="50" as="geometry" />
        </mxCell>
        <mxCell id="Kh6UWCqLEouyqFOK7ntM-1" value="Action&lt;br&gt;&lt;i&gt;Sample Analysis&lt;/i&gt;" style="rounded=1;whiteSpace=wrap;html=1;fontSize=12;glass=0;strokeWidth=1;shadow=0;fillColor=#dfdfdf;strokeColor=#82b366;" parent="WIyWlLk6GJQsqaUBKTNV-1" vertex="1">
          <mxGeometry x="-163" y="-970" width="103" height="50" as="geometry" />
        </mxCell>
        <mxCell id="Kh6UWCqLEouyqFOK7ntM-4" value="req." style="endArrow=classic;html=1;rounded=0;exitX=1;exitY=0.5;exitDx=0;exitDy=0;entryX=0;entryY=0.5;entryDx=0;entryDy=0;" parent="WIyWlLk6GJQsqaUBKTNV-1" source="Kh6UWCqLEouyqFOK7ntM-1" edge="1" target="fafH0U7rZojqmzMNoOSG-42">
          <mxGeometry width="50" height="50" relative="1" as="geometry">
            <mxPoint x="-17" y="-970" as="sourcePoint" />
            <mxPoint x="13.000000000000227" y="-940.3525" as="targetPoint" />
          </mxGeometry>
        </mxCell>
        <mxCell id="Kh6UWCqLEouyqFOK7ntM-8" value="" style="endArrow=classic;html=1;rounded=0;exitX=0.5;exitY=0;exitDx=0;exitDy=0;entryX=0.5;entryY=1;entryDx=0;entryDy=0;" parent="WIyWlLk6GJQsqaUBKTNV-1" source="PtvGfc8u3fFPzmpzfyYF-18" target="q7G3_dnfk2JLkKnpIX-u-0" edge="1">
          <mxGeometry width="50" height="50" relative="1" as="geometry">
            <mxPoint x="-17" y="-1000" as="sourcePoint" />
            <mxPoint x="-110" y="-1110" as="targetPoint" />
          </mxGeometry>
        </mxCell>
        <mxCell id="Kh6UWCqLEouyqFOK7ntM-28" value="subject" style="edgeLabel;html=1;align=center;verticalAlign=middle;resizable=0;points=[];" parent="Kh6UWCqLEouyqFOK7ntM-8" vertex="1" connectable="0">
          <mxGeometry x="0.2377" y="-3" relative="1" as="geometry">
            <mxPoint x="-3" y="7" as="offset" />
          </mxGeometry>
        </mxCell>
        <mxCell id="IEeFdyCGopTc3gh3-DFE-2" value="SubstanceDefinition&lt;br&gt;&lt;i&gt;0.1% Sorbitan M.&lt;/i&gt;" style="rounded=1;whiteSpace=wrap;html=1;fontSize=12;glass=0;strokeWidth=1;shadow=0;fillColor=#c1f0da;strokeColor=#9ebda2;" parent="WIyWlLk6GJQsqaUBKTNV-1" vertex="1">
          <mxGeometry x="-390" y="-1056.25" width="120" height="40" as="geometry" />
        </mxCell>
        <mxCell id="IEeFdyCGopTc3gh3-DFE-13" value="ObservationDefinition&lt;br&gt;&lt;i&gt;Refractive Index&lt;/i&gt;" style="rounded=1;whiteSpace=wrap;html=1;fontSize=12;glass=0;strokeWidth=1;shadow=0;fillColor=#A6C499;strokeColor=#82b366;" parent="WIyWlLk6GJQsqaUBKTNV-1" vertex="1">
          <mxGeometry x="13" y="-990" width="140" height="42.5" as="geometry" />
        </mxCell>
        <mxCell id="Gzazn2zRRz58NmP6-7yE-0" value="participant&amp;nbsp;&lt;br&gt;&lt;i&gt;Dispersant&lt;/i&gt;" style="endArrow=classic;html=1;rounded=0;entryX=1;entryY=0.5;entryDx=0;entryDy=0;exitX=0;exitY=0.5;exitDx=0;exitDy=0;" parent="WIyWlLk6GJQsqaUBKTNV-1" target="IEeFdyCGopTc3gh3-DFE-2" edge="1" source="Kh6UWCqLEouyqFOK7ntM-0">
          <mxGeometry x="-0.0154" width="50" height="50" relative="1" as="geometry">
            <mxPoint x="-177" y="-1000" as="sourcePoint" />
            <mxPoint x="13" y="-1000" as="targetPoint" />
            <mxPoint as="offset" />
          </mxGeometry>
        </mxCell>
        <mxCell id="Gzazn2zRRz58NmP6-7yE-1" value="SubstanceDefinition&lt;br&gt;&lt;i&gt;Stelbatalol in Dispersant&lt;/i&gt;" style="rounded=1;whiteSpace=wrap;html=1;fontSize=12;glass=0;strokeWidth=1;shadow=0;fillColor=#c1f0da;strokeColor=#9ebda2;" parent="WIyWlLk6GJQsqaUBKTNV-1" vertex="1">
          <mxGeometry x="-390" y="-993.75" width="120" height="50" as="geometry" />
        </mxCell>
        <mxCell id="Gzazn2zRRz58NmP6-7yE-2" value="participant&lt;br&gt;&lt;i&gt;Resulting&lt;br&gt;Material&lt;/i&gt;" style="endArrow=classic;html=1;rounded=0;exitX=0;exitY=0.75;exitDx=0;exitDy=0;entryX=1;entryY=0.5;entryDx=0;entryDy=0;" parent="WIyWlLk6GJQsqaUBKTNV-1" source="Kh6UWCqLEouyqFOK7ntM-0" target="Gzazn2zRRz58NmP6-7yE-1" edge="1">
          <mxGeometry width="50" height="50" relative="1" as="geometry">
            <mxPoint x="-150" y="-1000" as="sourcePoint" />
            <mxPoint x="-237" y="-1000" as="targetPoint" />
          </mxGeometry>
        </mxCell>
        <mxCell id="q7G3_dnfk2JLkKnpIX-u-0" value="SubstanceDefinition&lt;br&gt;&lt;i style=&quot;border-color: var(--border-color);&quot;&gt;Stelbatolol&lt;/i&gt;" style="rounded=1;whiteSpace=wrap;html=1;fontSize=12;glass=0;strokeWidth=1;shadow=0;fillColor=#c1f0da;strokeColor=#9ebda2;" vertex="1" parent="WIyWlLk6GJQsqaUBKTNV-1">
          <mxGeometry x="-187" y="-1150" width="155.5" height="40" as="geometry" />
        </mxCell>
        <mxCell id="q7G3_dnfk2JLkKnpIX-u-2" value="DeviceDefinition&lt;br&gt;&lt;i&gt;Particle Size Analyser&lt;/i&gt;" style="rounded=1;whiteSpace=wrap;html=1;fontSize=12;glass=0;strokeWidth=1;shadow=0;fillColor=#dfdfdf;strokeColor=#82b366;" vertex="1" parent="WIyWlLk6GJQsqaUBKTNV-1">
          <mxGeometry x="-390" y="-920" width="140" height="40" as="geometry" />
        </mxCell>
        <mxCell id="q7G3_dnfk2JLkKnpIX-u-3" value="participant" style="endArrow=classic;html=1;rounded=0;exitX=0;exitY=0.5;exitDx=0;exitDy=0;entryX=1;entryY=0.5;entryDx=0;entryDy=0;" edge="1" parent="WIyWlLk6GJQsqaUBKTNV-1" target="q7G3_dnfk2JLkKnpIX-u-2" source="Kh6UWCqLEouyqFOK7ntM-1">
          <mxGeometry width="50" height="50" relative="1" as="geometry">
            <mxPoint x="-100" y="-870" as="sourcePoint" />
            <mxPoint x="-150" y="-800" as="targetPoint" />
          </mxGeometry>
        </mxCell>
      </root>
    </mxGraphModel>
  </diagram>
</mxfile>
